<svg width="15" height="15" viewBox="0 0 15 15" fill="none" xmlns="http://www.w3.org/2000/svg">
<path d="M14.7263 13.4033L11.8228 10.4988C13.9953 7.59583 13.4029 3.48146 10.4997 1.30914C7.59648 -0.86319 3.48176 -0.270867 1.30925 2.63212C-0.863263 5.5351 -0.27089 9.64947 2.63234 11.8218C4.96445 13.5668 8.16756 13.5668 10.4997 11.8218L13.4044 14.7262C13.7694 15.0912 14.3612 15.0912 14.7262 14.7262C15.0913 14.3612 15.0913 13.7695 14.7262 13.4045L14.7263 13.4033ZM6.59023 11.2612C4.00998 11.2612 1.91829 9.16971 1.91829 6.58967C1.91829 4.00964 4.00998 1.91813 6.59023 1.91813C9.17048 1.91813 11.2622 4.00964 11.2622 6.58967C11.2594 9.16854 9.16934 11.2585 6.59023 11.2612Z" fill="#8391A1"/>
</svg>
